<?xml version="1.0" encoding="UTF-8" standalone="no"?>
<!DOCTYPE svg PUBLIC "-//W3C//DTD SVG 1.1//EN"
 "http://www.w3.org/Graphics/SVG/1.1/DTD/svg11.dtd">
<!-- Generated by graphviz version 15.1.0 (20260618.0150)
 -->
<!-- Title: P1202Outbox Pages: 1 -->
<svg width="1055pt" height="133pt"
 viewBox="0.00 0.00 1055.00 133.00" xmlns="http://www.w3.org/2000/svg" xmlns:xlink="http://www.w3.org/1999/xlink">
<g id="graph0" class="graph" transform="scale(1 1) rotate(0) translate(4 128.5)">
<title>P1202Outbox</title>
<polygon fill="white" stroke="none" points="-4,4 -4,-128.5 1051,-128.5 1051,4 -4,4"/>
<text xml:space="preserve" text-anchor="middle" x="523.5" y="-7.2" font-family="Times New Roman,serif" font-size="14.00">D&#45;P12&#45;02&#45;002 Transactional Outbox Flow</text>
<!-- TX -->
<g id="node1" class="node">
<title>TX</title>
<polygon fill="none" stroke="black" points="153.25,-92 0,-92 0,-56 153.25,-56 153.25,-92"/>
<text xml:space="preserve" text-anchor="middle" x="76.62" y="-68.95" font-family="Times New Roman,serif" font-size="14.00">Business DB Transaction</text>
</g>
<!-- MUT -->
<g id="node2" class="node">
<title>MUT</title>
<polygon fill="none" stroke="black" points="350.25,-124.5 190.25,-124.5 190.25,-83.5 350.25,-83.5 350.25,-124.5"/>
<text xml:space="preserve" text-anchor="middle" x="270.25" y="-107.2" font-family="Times New Roman,serif" font-size="14.00">Domain mutation</text>
<text xml:space="preserve" text-anchor="middle" x="270.25" y="-90.7" font-family="Times New Roman,serif" font-size="14.00">(payment/invoice/reading)</text>
</g>
<!-- TX&#45;&gt;MUT -->
<g id="edge1" class="edge">
<title>TX&#45;&gt;MUT</title>
<path fill="none" stroke="black" d="M153.64,-85.9C161.83,-87.18 170.22,-88.5 178.56,-89.8"/>
<polygon fill="black" stroke="black" points="177.96,-93.25 188.38,-91.34 179.04,-86.33 177.96,-93.25"/>
</g>
<!-- OUT -->
<g id="node3" class="node">
<title>OUT</title>
<polygon fill="none" stroke="black" points="339.38,-65.5 201.12,-65.5 201.12,-24.5 339.38,-24.5 339.38,-65.5"/>
<text xml:space="preserve" text-anchor="middle" x="270.25" y="-48.2" font-family="Times New Roman,serif" font-size="14.00">OutboxEvent INSERT</text>
<text xml:space="preserve" text-anchor="middle" x="270.25" y="-31.7" font-family="Times New Roman,serif" font-size="14.00">(same tx &#45; atomic)</text>
</g>
<!-- TX&#45;&gt;OUT -->
<g id="edge2" class="edge">
<title>TX&#45;&gt;OUT</title>
<path fill="none" stroke="black" d="M153.64,-62.5C165.43,-60.71 177.65,-58.86 189.53,-57.06"/>
<polygon fill="black" stroke="black" points="189.93,-60.54 199.29,-55.59 188.88,-53.62 189.93,-60.54"/>
</g>
<!-- DISP -->
<g id="node4" class="node">
<title>DISP</title>
<polygon fill="none" stroke="black" points="566.5,-65.5 429,-65.5 429,-24.5 566.5,-24.5 566.5,-65.5"/>
<text xml:space="preserve" text-anchor="middle" x="497.75" y="-48.2" font-family="Times New Roman,serif" font-size="14.00">Dispatcher</text>
<text xml:space="preserve" text-anchor="middle" x="497.75" y="-31.7" font-family="Times New Roman,serif" font-size="14.00">(poll SKIP LOCKED)</text>
</g>
<!-- OUT&#45;&gt;DISP -->
<g id="edge3" class="edge">
<title>OUT&#45;&gt;DISP</title>
<path fill="none" stroke="black" d="M339.83,-45C364.21,-45 391.87,-45 417.1,-45"/>
<polygon fill="black" stroke="black" points="416.99,-48.5 426.99,-45 416.99,-41.5 416.99,-48.5"/>
<text xml:space="preserve" text-anchor="middle" x="389.62" y="-48.2" font-family="Times New Roman,serif" font-size="14.00">commit</text>
</g>
<!-- DELIV -->
<g id="node5" class="node">
<title>DELIV</title>
<polygon fill="none" stroke="black" points="702.75,-65.5 603.5,-65.5 603.5,-24.5 702.75,-24.5 702.75,-65.5"/>
<text xml:space="preserve" text-anchor="middle" x="653.12" y="-48.2" font-family="Times New Roman,serif" font-size="14.00">EventDelivery</text>
<text xml:space="preserve" text-anchor="middle" x="653.12" y="-31.7" font-family="Times New Roman,serif" font-size="14.00">(per consumer)</text>
</g>
<!-- DISP&#45;&gt;DELIV -->
<g id="edge4" class="edge">
<title>DISP&#45;&gt;DELIV</title>
<path fill="none" stroke="black" d="M566.92,-45C575.18,-45 583.58,-45 591.72,-45"/>
<polygon fill="black" stroke="black" points="591.51,-48.5 601.51,-45 591.51,-41.5 591.51,-48.5"/>
</g>
<!-- CON -->
<g id="node6" class="node">
<title>CON</title>
<polygon fill="none" stroke="black" points="865,-65.5 778.5,-65.5 778.5,-24.5 865,-24.5 865,-65.5"/>
<text xml:space="preserve" text-anchor="middle" x="821.75" y="-48.2" font-family="Times New Roman,serif" font-size="14.00">Consumer</text>
<text xml:space="preserve" text-anchor="middle" x="821.75" y="-31.7" font-family="Times New Roman,serif" font-size="14.00">(idempotent)</text>
</g>
<!-- DELIV&#45;&gt;CON -->
<g id="edge5" class="edge">
<title>DELIV&#45;&gt;CON</title>
<path fill="none" stroke="black" d="M703.22,-45C723.21,-45 746.39,-45 766.85,-45"/>
<polygon fill="black" stroke="black" points="766.7,-48.5 776.7,-45 766.7,-41.5 766.7,-48.5"/>
<text xml:space="preserve" text-anchor="middle" x="740.62" y="-48.2" font-family="Times New Roman,serif" font-size="14.00">publish</text>
</g>
<!-- ACK -->
<g id="node7" class="node">
<title>ACK</title>
<polygon fill="none" stroke="black" points="1047,-63 902,-63 902,-27 1047,-27 1047,-63"/>
<text xml:space="preserve" text-anchor="middle" x="974.5" y="-39.95" font-family="Times New Roman,serif" font-size="14.00">ACK &#45;&gt; status ACKED</text>
</g>
<!-- CON&#45;&gt;ACK -->
<g id="edge6" class="edge">
<title>CON&#45;&gt;ACK</title>
<path fill="none" stroke="black" d="M865.14,-45C873.08,-45 881.62,-45 890.29,-45"/>
<polygon fill="black" stroke="black" points="890.23,-48.5 900.23,-45 890.23,-41.5 890.23,-48.5"/>
</g>
</g>
</svg>
