<?xml version="1.0" encoding="UTF-8" standalone="no"?>
<!DOCTYPE svg PUBLIC "-//W3C//DTD SVG 1.1//EN"
 "http://www.w3.org/Graphics/SVG/1.1/DTD/svg11.dtd">
<!-- Generated by graphviz version 15.1.0 (20260618.0150)
 -->
<!-- Title: C11 Pages: 1 -->
<svg width="1122pt" height="69pt"
 viewBox="0.00 0.00 1122.00 69.00" xmlns="http://www.w3.org/2000/svg" xmlns:xlink="http://www.w3.org/1999/xlink">
<g id="graph0" class="graph" transform="scale(1 1) rotate(0) translate(4 64.5)">
<title>C11</title>
<polygon fill="white" stroke="none" points="-4,4 -4,-64.5 1117.75,-64.5 1117.75,4 -4,4"/>
<text xml:space="preserve" text-anchor="middle" x="556.88" y="-7.2" font-family="Times New Roman,serif" font-size="14.00">D&#45;P12&#45;02&#45;011 Symbiot&#45;&gt;Solar event flow</text>
<!-- SYM -->
<g id="node1" class="node">
<title>SYM</title>
<polygon fill="none" stroke="black" points="140.5,-60.5 0,-60.5 0,-24.5 140.5,-24.5 140.5,-60.5"/>
<text xml:space="preserve" text-anchor="middle" x="70.25" y="-37.45" font-family="Times New Roman,serif" font-size="14.00">Symbiot (service auth)</text>
</g>
<!-- ING -->
<g id="node2" class="node">
<title>ING</title>
<polygon fill="none" stroke="black" points="344,-60.5 176.5,-60.5 176.5,-24.5 344,-24.5 344,-60.5"/>
<text xml:space="preserve" text-anchor="middle" x="260.25" y="-37.45" font-family="Times New Roman,serif" font-size="14.00">ingestReading (idempotent)</text>
</g>
<!-- SYM&#45;&gt;ING -->
<g id="edge1" class="edge">
<title>SYM&#45;&gt;ING</title>
<path fill="none" stroke="black" d="M140.99,-42.5C148.8,-42.5 156.85,-42.5 164.91,-42.5"/>
<polygon fill="black" stroke="black" points="164.76,-46 174.76,-42.5 164.76,-39 164.76,-46"/>
</g>
<!-- EV -->
<g id="node3" class="node">
<title>EV</title>
<polygon fill="none" stroke="black" points="576.75,-60.5 380,-60.5 380,-24.5 576.75,-24.5 576.75,-60.5"/>
<text xml:space="preserve" text-anchor="middle" x="478.38" y="-37.45" font-family="Times New Roman,serif" font-size="14.00">READING.INGESTED (outbox)</text>
</g>
<!-- ING&#45;&gt;EV -->
<g id="edge2" class="edge">
<title>ING&#45;&gt;EV</title>
<path fill="none" stroke="black" d="M344.19,-42.5C352.12,-42.5 360.24,-42.5 368.37,-42.5"/>
<polygon fill="black" stroke="black" points="368.33,-46 378.33,-42.5 368.33,-39 368.33,-46"/>
</g>
<!-- WAL -->
<g id="node4" class="node">
<title>WAL</title>
<polygon fill="none" stroke="black" points="768.25,-60.5 612.75,-60.5 612.75,-24.5 768.25,-24.5 768.25,-60.5"/>
<text xml:space="preserve" text-anchor="middle" x="690.5" y="-37.45" font-family="Times New Roman,serif" font-size="14.00">Solar wallet (idempotent)</text>
</g>
<!-- EV&#45;&gt;WAL -->
<g id="edge3" class="edge">
<title>EV&#45;&gt;WAL</title>
<path fill="none" stroke="black" d="M577.06,-42.5C585.05,-42.5 593.1,-42.5 601.02,-42.5"/>
<polygon fill="black" stroke="black" points="601,-46 611,-42.5 601,-39 601,-46"/>
</g>
<!-- SET -->
<g id="node5" class="node">
<title>SET</title>
<polygon fill="none" stroke="black" points="878.75,-60.5 804.25,-60.5 804.25,-24.5 878.75,-24.5 878.75,-60.5"/>
<text xml:space="preserve" text-anchor="middle" x="841.5" y="-37.45" font-family="Times New Roman,serif" font-size="14.00">Settlement</text>
</g>
<!-- WAL&#45;&gt;SET -->
<g id="edge4" class="edge">
<title>WAL&#45;&gt;SET</title>
<path fill="none" stroke="black" d="M768.62,-42.5C776.82,-42.5 784.99,-42.5 792.71,-42.5"/>
<polygon fill="black" stroke="black" points="792.52,-46 802.52,-42.5 792.52,-39 792.52,-46"/>
</g>
<!-- SOLD -->
<g id="node6" class="node">
<title>SOLD</title>
<polygon fill="none" stroke="black" points="1113.75,-60.5 914.75,-60.5 914.75,-24.5 1113.75,-24.5 1113.75,-60.5"/>
<text xml:space="preserve" text-anchor="middle" x="1014.25" y="-37.45" font-family="Times New Roman,serif" font-size="14.00">Solar invoice (financial, guarded)</text>
</g>
<!-- SET&#45;&gt;SOLD -->
<g id="edge5" class="edge">
<title>SET&#45;&gt;SOLD</title>
<path fill="none" stroke="black" d="M879.13,-42.5C886.49,-42.5 894.57,-42.5 903.01,-42.5"/>
<polygon fill="black" stroke="black" points="902.77,-46 912.77,-42.5 902.77,-39 902.77,-46"/>
</g>
</g>
</svg>
