<?xml version="1.0" encoding="UTF-8" standalone="no"?>
<!DOCTYPE svg PUBLIC "-//W3C//DTD SVG 1.1//EN"
 "http://www.w3.org/Graphics/SVG/1.1/DTD/svg11.dtd">
<!-- Generated by graphviz version 15.1.0 (20260618.0150)
 -->
<!-- Title: LegacyReuse Pages: 1 -->
<svg width="910pt" height="385pt"
 viewBox="0.00 0.00 910.00 385.00" xmlns="http://www.w3.org/2000/svg" xmlns:xlink="http://www.w3.org/1999/xlink">
<g id="graph0" class="graph" transform="scale(1 1) rotate(0) translate(4 381)">
<title>LegacyReuse</title>
<polygon fill="white" stroke="none" points="-4,4 -4,-381 906,-381 906,4 -4,4"/>
<text xml:space="preserve" text-anchor="middle" x="451" y="-23.7" font-family="Times New Roman,serif" font-size="14.00">Legacy → MeterVerse Reuse — v1.0.0</text>
<text xml:space="preserve" text-anchor="middle" x="451" y="-7.2" font-family="Times New Roman,serif" font-size="14.00">No direct architecture import; only value (rules/formulas/tests/templates).</text>
<!-- L_SETTLE -->
<g id="node1" class="node">
<title>L_SETTLE</title>
<polygon fill="none" stroke="black" points="218.12,-82 215.12,-86 194.12,-86 191.12,-82 37.12,-82 37.12,-41 218.12,-41 218.12,-82"/>
<text xml:space="preserve" text-anchor="middle" x="127.62" y="-64.7" font-family="Times New Roman,serif" font-size="14.00">Legacy Settlement</text>
<text xml:space="preserve" text-anchor="middle" x="127.62" y="-48.2" font-family="Times New Roman,serif" font-size="14.00">(Collection charge_engine.py)</text>
</g>
<!-- M_SETTLE -->
<g id="node7" class="node">
<title>M_SETTLE</title>
<polygon fill="none" stroke="black" points="879.88,-82 608.12,-82 608.12,-41 879.88,-41 879.88,-82"/>
<text xml:space="preserve" text-anchor="middle" x="744" y="-64.7" font-family="Times New Roman,serif" font-size="14.00">settlement&#45;engine.js</text>
<text xml:space="preserve" text-anchor="middle" x="744" y="-48.2" font-family="Times New Roman,serif" font-size="14.00">+ Settlement/InvoiceSettlement (LR&#45;2 DONE)</text>
</g>
<!-- L_SETTLE&#45;&gt;M_SETTLE -->
<g id="edge1" class="edge">
<title>L_SETTLE&#45;&gt;M_SETTLE</title>
<path fill="none" stroke="green" d="M218.62,-61.5C317.9,-61.5 479.17,-61.5 596.68,-61.5"/>
<polygon fill="green" stroke="green" points="596.4,-65 606.4,-61.5 596.4,-58 596.4,-65"/>
<text xml:space="preserve" text-anchor="middle" x="420.62" y="-64.7" font-family="Times New Roman,serif" font-size="14.00">ADAPT (ported logic)</text>
</g>
<!-- L_CHARGE -->
<g id="node2" class="node">
<title>L_CHARGE</title>
<polygon fill="none" stroke="black" points="255.25,-141 252.25,-145 231.25,-145 228.25,-141 0,-141 0,-100 255.25,-100 255.25,-141"/>
<text xml:space="preserve" text-anchor="middle" x="127.62" y="-123.7" font-family="Times New Roman,serif" font-size="14.00">Legacy Charge Types</text>
<text xml:space="preserve" text-anchor="middle" x="127.62" y="-107.2" font-family="Times New Roman,serif" font-size="14.00">(STEPS/FLAT/STATIC/PER_UNIT/ZERO)</text>
</g>
<!-- M_CHARGE -->
<g id="node8" class="node">
<title>M_CHARGE</title>
<polygon fill="none" stroke="black" points="902,-141 586,-141 586,-100 902,-100 902,-141"/>
<text xml:space="preserve" text-anchor="middle" x="744" y="-123.7" font-family="Times New Roman,serif" font-size="14.00">generateCharges</text>
<text xml:space="preserve" text-anchor="middle" x="744" y="-107.2" font-family="Times New Roman,serif" font-size="14.00">per_unit/zero + ChargeRule.upperLimit (LR&#45;2 DONE)</text>
</g>
<!-- L_CHARGE&#45;&gt;M_CHARGE -->
<g id="edge2" class="edge">
<title>L_CHARGE&#45;&gt;M_CHARGE</title>
<path fill="none" stroke="green" d="M255.55,-120.5C347.84,-120.5 473.72,-120.5 574.44,-120.5"/>
<polygon fill="green" stroke="green" points="574.15,-124 584.15,-120.5 574.15,-117 574.15,-124"/>
<text xml:space="preserve" text-anchor="middle" x="420.62" y="-123.7" font-family="Times New Roman,serif" font-size="14.00">ADAPT (extended ChargeRule)</text>
</g>
<!-- L_SOLAR -->
<g id="node3" class="node">
<title>L_SOLAR</title>
<polygon fill="none" stroke="black" points="216.25,-200 213.25,-204 192.25,-204 189.25,-200 39,-200 39,-159 216.25,-159 216.25,-200"/>
<text xml:space="preserve" text-anchor="middle" x="127.62" y="-182.7" font-family="Times New Roman,serif" font-size="14.00">Legacy Solar Wallet</text>
<text xml:space="preserve" text-anchor="middle" x="127.62" y="-166.2" font-family="Times New Roman,serif" font-size="14.00">(routes_admin.py + CR2047)</text>
</g>
<!-- M_SOLAR -->
<g id="node9" class="node">
<title>M_SOLAR</title>
<polygon fill="none" stroke="black" points="837.88,-200 650.12,-200 650.12,-159 837.88,-159 837.88,-200"/>
<text xml:space="preserve" text-anchor="middle" x="744" y="-182.7" font-family="Times New Roman,serif" font-size="14.00">solar&#45;wallet&#45;engine</text>
<text xml:space="preserve" text-anchor="middle" x="744" y="-166.2" font-family="Times New Roman,serif" font-size="14.00">(contract ready — OBIS gated)</text>
</g>
<!-- L_SOLAR&#45;&gt;M_SOLAR -->
<g id="edge3" class="edge">
<title>L_SOLAR&#45;&gt;M_SOLAR</title>
<path fill="none" stroke="orange" d="M216.65,-179.5C328.11,-179.5 519.88,-179.5 638.6,-179.5"/>
<polygon fill="orange" stroke="orange" points="638.34,-183 648.34,-179.5 638.34,-176 638.34,-183"/>
<text xml:space="preserve" text-anchor="middle" x="420.62" y="-182.7" font-family="Times New Roman,serif" font-size="14.00">EXTRACT knowledge → native (BLOCKED: OBIS)</text>
</g>
<!-- L_EXCEL -->
<g id="node4" class="node">
<title>L_EXCEL</title>
<polygon fill="none" stroke="black" points="191.12,-259 188.12,-263 167.12,-263 164.12,-259 64.12,-259 64.12,-218 191.12,-218 191.12,-259"/>
<text xml:space="preserve" text-anchor="middle" x="127.62" y="-241.7" font-family="Times New Roman,serif" font-size="14.00">Legacy Solar XLSX</text>
<text xml:space="preserve" text-anchor="middle" x="127.62" y="-225.2" font-family="Times New Roman,serif" font-size="14.00">(3 templates)</text>
</g>
<!-- M_EXCEL -->
<g id="node10" class="node">
<title>M_EXCEL</title>
<polygon fill="none" stroke="black" points="805.25,-259 682.75,-259 682.75,-218 805.25,-218 805.25,-259"/>
<text xml:space="preserve" text-anchor="middle" x="744" y="-241.7" font-family="Times New Roman,serif" font-size="14.00">ImportJob schemas</text>
<text xml:space="preserve" text-anchor="middle" x="744" y="-225.2" font-family="Times New Roman,serif" font-size="14.00">(contract ready)</text>
</g>
<!-- L_EXCEL&#45;&gt;M_EXCEL -->
<g id="edge4" class="edge">
<title>L_EXCEL&#45;&gt;M_EXCEL</title>
<path fill="none" stroke="green" d="M191.49,-238.5C306.44,-238.5 549.85,-238.5 671.15,-238.5"/>
<polygon fill="green" stroke="green" points="670.99,-242 680.99,-238.5 670.99,-235 670.99,-242"/>
<text xml:space="preserve" text-anchor="middle" x="420.62" y="-241.7" font-family="Times New Roman,serif" font-size="14.00">REUSE templates (contract)</text>
</g>
<!-- L_SYMB -->
<g id="node5" class="node">
<title>L_SYMB</title>
<polygon fill="none" stroke="black" points="193.38,-318 190.38,-322 169.38,-322 166.38,-318 61.88,-318 61.88,-277 193.38,-277 193.38,-318"/>
<text xml:space="preserve" text-anchor="middle" x="127.62" y="-300.7" font-family="Times New Roman,serif" font-size="14.00">Symbiot AMI/MDM</text>
<text xml:space="preserve" text-anchor="middle" x="127.62" y="-284.2" font-family="Times New Roman,serif" font-size="14.00">(protocols)</text>
</g>
<!-- M_SYMB -->
<g id="node11" class="node">
<title>M_SYMB</title>
<polygon fill="none" stroke="black" points="813.5,-318 674.5,-318 674.5,-277 813.5,-277 813.5,-318"/>
<text xml:space="preserve" text-anchor="middle" x="744" y="-300.7" font-family="Times New Roman,serif" font-size="14.00">gateways / SEP bridge</text>
<text xml:space="preserve" text-anchor="middle" x="744" y="-284.2" font-family="Times New Roman,serif" font-size="14.00">(protocol knowledge)</text>
</g>
<!-- L_SYMB&#45;&gt;M_SYMB -->
<g id="edge5" class="edge">
<title>L_SYMB&#45;&gt;M_SYMB</title>
<path fill="none" stroke="orange" d="M193.79,-297.5C307.14,-297.5 540.22,-297.5 663.12,-297.5"/>
<polygon fill="orange" stroke="orange" points="662.78,-301 672.78,-297.5 662.78,-294 662.78,-301"/>
<text xml:space="preserve" text-anchor="middle" x="420.62" y="-300.7" font-family="Times New Roman,serif" font-size="14.00">EXTRACT protocol knowledge</text>
</g>
<!-- L_SBILL -->
<g id="node6" class="node">
<title>L_SBILL</title>
<polygon fill="none" stroke="black" points="185.5,-377 182.5,-381 161.5,-381 158.5,-377 69.75,-377 69.75,-336 185.5,-336 185.5,-377"/>
<text xml:space="preserve" text-anchor="middle" x="127.62" y="-359.7" font-family="Times New Roman,serif" font-size="14.00">SBill/October</text>
<text xml:space="preserve" text-anchor="middle" x="127.62" y="-343.2" font-family="Times New Roman,serif" font-size="14.00">(SQL Server data)</text>
</g>
<!-- M_SBILL -->
<g id="node12" class="node">
<title>M_SBILL</title>
<polygon fill="none" stroke="black" points="813.88,-377 674.12,-377 674.12,-336 813.88,-336 813.88,-377"/>
<text xml:space="preserve" text-anchor="middle" x="744" y="-359.7" font-family="Times New Roman,serif" font-size="14.00">meter_pulse migration</text>
<text xml:space="preserve" text-anchor="middle" x="744" y="-343.2" font-family="Times New Roman,serif" font-size="14.00">(gated on P59&#45;B)</text>
</g>
<!-- L_SBILL&#45;&gt;M_SBILL -->
<g id="edge6" class="edge">
<title>L_SBILL&#45;&gt;M_SBILL</title>
<path fill="none" stroke="red" d="M185.87,-356.5C295.79,-356.5 536.63,-356.5 662.6,-356.5"/>
<polygon fill="red" stroke="red" points="662.54,-360 672.54,-356.5 662.54,-353 662.54,-360"/>
<text xml:space="preserve" text-anchor="middle" x="420.62" y="-359.7" font-family="Times New Roman,serif" font-size="14.00">MIGRATE DATA (boundary, gated)</text>
</g>
</g>
</svg>
