<?xml version="1.0" encoding="UTF-8" standalone="no"?>
<!DOCTYPE svg PUBLIC "-//W3C//DTD SVG 1.1//EN"
 "http://www.w3.org/Graphics/SVG/1.1/DTD/svg11.dtd">
<!-- Generated by graphviz version 15.1.0 (20260618.0150)
 -->
<!-- Title: TestCov Pages: 1 -->
<svg width="1277pt" height="616pt"
 viewBox="0.00 0.00 1277.00 616.00" xmlns="http://www.w3.org/2000/svg" xmlns:xlink="http://www.w3.org/1999/xlink">
<g id="graph0" class="graph" transform="scale(1 1) rotate(0) translate(4 612)">
<title>TestCov</title>
<polygon fill="white" stroke="none" points="-4,4 -4,-612 1273,-612 1273,4 -4,4"/>
<text xml:space="preserve" text-anchor="middle" x="634.5" y="-7.2" font-family="Times New Roman,serif" font-size="14.00">Test Coverage — v1.0.0 (evidence, not estimates)</text>
<!-- UNIT -->
<g id="node1" class="node">
<title>UNIT</title>
<polygon fill="none" stroke="black" points="287.88,-230 62.62,-230 62.62,-194 287.88,-194 287.88,-230"/>
<text xml:space="preserve" text-anchor="middle" x="175.25" y="-206.95" font-family="Times New Roman,serif" font-size="14.00">unit+api 379 (361 pass + 18 skip live)</text>
</g>
<!-- T_SEC -->
<g id="node2" class="node">
<title>T_SEC</title>
<polygon fill="none" stroke="black" points="678.5,-392 439,-392 439,-356 678.5,-356 678.5,-392"/>
<text xml:space="preserve" text-anchor="middle" x="558.75" y="-368.95" font-family="Times New Roman,serif" font-size="14.00">security 49 (requireAccess NULL→403)</text>
</g>
<!-- UNIT&#45;&gt;T_SEC -->
<g id="edge1" class="edge">
<title>UNIT&#45;&gt;T_SEC</title>
<path fill="none" stroke="black" d="M240.17,-230.45C275.56,-243.02 318.69,-262.43 350.5,-290 373.14,-309.63 361.47,-330.53 386.5,-347 399.04,-355.25 413.2,-361.32 427.87,-365.73"/>
<polygon fill="black" stroke="black" points="426.6,-369.01 437.17,-368.26 428.44,-362.25 426.6,-369.01"/>
</g>
<!-- T_SETTLE -->
<g id="node3" class="node">
<title>T_SETTLE</title>
<polygon fill="none" stroke="black" points="620.75,-338 496.75,-338 496.75,-302 620.75,-302 620.75,-338"/>
<text xml:space="preserve" text-anchor="middle" x="558.75" y="-314.95" font-family="Times New Roman,serif" font-size="14.00">settlement 7 (LR&#45;2)</text>
</g>
<!-- UNIT&#45;&gt;T_SETTLE -->
<g id="edge2" class="edge">
<title>UNIT&#45;&gt;T_SETTLE</title>
<path fill="none" stroke="black" d="M216.49,-230.44C258.2,-248.85 325.67,-276.68 386.5,-293 418.48,-301.58 454.59,-307.77 485.38,-312.04"/>
<polygon fill="black" stroke="black" points="484.59,-315.46 494.96,-313.33 485.52,-308.53 484.59,-315.46"/>
</g>
<!-- T_CHARGE -->
<g id="node4" class="node">
<title>T_CHARGE</title>
<polygon fill="none" stroke="black" points="627.12,-284 490.38,-284 490.38,-248 627.12,-248 627.12,-284"/>
<text xml:space="preserve" text-anchor="middle" x="558.75" y="-260.95" font-family="Times New Roman,serif" font-size="14.00">charge&#45;types 7 (LR&#45;2)</text>
</g>
<!-- UNIT&#45;&gt;T_CHARGE -->
<g id="edge3" class="edge">
<title>UNIT&#45;&gt;T_CHARGE</title>
<path fill="none" stroke="black" d="M288.13,-227.84C349.33,-236.5 423.66,-247.02 478.77,-254.82"/>
<polygon fill="black" stroke="black" points="477.99,-258.24 488.38,-256.18 478.97,-251.31 477.99,-258.24"/>
</g>
<!-- T_DBGUARD -->
<g id="node5" class="node">
<title>T_DBGUARD</title>
<polygon fill="none" stroke="black" points="626,-230 491.5,-230 491.5,-194 626,-194 626,-230"/>
<text xml:space="preserve" text-anchor="middle" x="558.75" y="-206.95" font-family="Times New Roman,serif" font-size="14.00">db&#45;guard 6 (isolation)</text>
</g>
<!-- UNIT&#45;&gt;T_DBGUARD -->
<g id="edge4" class="edge">
<title>UNIT&#45;&gt;T_DBGUARD</title>
<path fill="none" stroke="black" d="M288.13,-212C349.61,-212 424.35,-212 479.53,-212"/>
<polygon fill="black" stroke="black" points="479.49,-215.5 489.49,-212 479.49,-208.5 479.49,-215.5"/>
</g>
<!-- T_IMPORT -->
<g id="node6" class="node">
<title>T_IMPORT</title>
<polygon fill="none" stroke="black" points="731,-176 386.5,-176 386.5,-140 731,-140 731,-176"/>
<text xml:space="preserve" text-anchor="middle" x="558.75" y="-152.95" font-family="Times New Roman,serif" font-size="14.00">import&#45;engine 15 + tenancy 3 (LR&#45;3/4/6 + P60.1 templates)</text>
</g>
<!-- UNIT&#45;&gt;T_IMPORT -->
<g id="edge5" class="edge">
<title>UNIT&#45;&gt;T_IMPORT</title>
<path fill="none" stroke="black" d="M288.13,-196.16C328.2,-190.49 373.89,-184.02 416.14,-178.04"/>
<polygon fill="black" stroke="black" points="416.47,-181.53 425.88,-176.67 415.48,-174.6 416.47,-181.53"/>
</g>
<!-- T_SOLAR -->
<g id="node7" class="node">
<title>T_SOLAR</title>
<polygon fill="none" stroke="black" points="725.75,-122 391.75,-122 391.75,-86 725.75,-86 725.75,-122"/>
<text xml:space="preserve" text-anchor="middle" x="558.75" y="-98.95" font-family="Times New Roman,serif" font-size="14.00">solar&#45;wallet 16 (LR&#45;5) + solar route LIVE&#45;verified (LR&#45;7)</text>
</g>
<!-- UNIT&#45;&gt;T_SOLAR -->
<g id="edge6" class="edge">
<title>UNIT&#45;&gt;T_SOLAR</title>
<path fill="none" stroke="black" d="M216.49,-193.56C258.2,-175.15 325.67,-147.32 386.5,-131 394.78,-128.78 403.33,-126.72 412,-124.81"/>
<polygon fill="black" stroke="black" points="412.49,-128.28 421.55,-122.79 411.04,-121.44 412.49,-128.28"/>
</g>
<!-- T_CHEQUE -->
<g id="node8" class="node">
<title>T_CHEQUE</title>
<polygon fill="none" stroke="black" points="680.75,-66 436.75,-66 436.75,-30 680.75,-30 680.75,-66"/>
<text xml:space="preserve" text-anchor="middle" x="558.75" y="-42.95" font-family="Times New Roman,serif" font-size="14.00">cheque engine 6 (LR&#45;7) + route 8 (P60.4)</text>
</g>
<!-- UNIT&#45;&gt;T_CHEQUE -->
<g id="edge7" class="edge">
<title>UNIT&#45;&gt;T_CHEQUE</title>
<path fill="none" stroke="black" d="M198.23,-193.53C234.77,-163.88 311.46,-106.04 386.5,-77 398.8,-72.24 411.9,-68.26 425.17,-64.93"/>
<polygon fill="black" stroke="black" points="425.94,-68.34 434.86,-62.63 424.32,-61.53 425.94,-68.34"/>
</g>
<!-- IMPORT_DONE -->
<g id="node9" class="node">
<title>IMPORT_DONE</title>
<polygon fill="none" stroke="black" points="1269,-183.5 767,-183.5 767,-142.5 1269,-142.5 1269,-183.5"/>
<text xml:space="preserve" text-anchor="middle" x="1018" y="-166.2" font-family="Times New Roman,serif" font-size="14.00">Solar Excel ImportJob</text>
<text xml:space="preserve" text-anchor="middle" x="1018" y="-149.7" font-family="Times New Roman,serif" font-size="14.00">[DONE LR&#45;3 — EXECUTE prod&#45;grade: dup&#45;detect + per&#45;row tx + 50k cap; prod gated]</text>
</g>
<!-- T_IMPORT&#45;&gt;IMPORT_DONE -->
<g id="edge8" class="edge">
<title>T_IMPORT&#45;&gt;IMPORT_DONE</title>
<path fill="none" stroke="black" d="M731.31,-159.88C739.24,-159.96 747.26,-160.05 755.33,-160.14"/>
<polygon fill="black" stroke="black" points="755.24,-163.64 765.27,-160.25 755.31,-156.64 755.24,-163.64"/>
</g>
<!-- SOLAR_DONE -->
<g id="node10" class="node">
<title>SOLAR_DONE</title>
<polygon fill="none" stroke="black" points="1263,-124.5 773,-124.5 773,-83.5 1263,-83.5 1263,-124.5"/>
<text xml:space="preserve" text-anchor="middle" x="1018" y="-107.2" font-family="Times New Roman,serif" font-size="14.00">Solar Wallet ENGINE + ROUTE</text>
<text xml:space="preserve" text-anchor="middle" x="1018" y="-90.7" font-family="Times New Roman,serif" font-size="14.00">[DONE LR&#45;5/7 — compute/persist/route LIVE&#45;verified; Reading capture OBIS&#45;gated]</text>
</g>
<!-- T_SOLAR&#45;&gt;SOLAR_DONE -->
<g id="edge9" class="edge">
<title>T_SOLAR&#45;&gt;SOLAR_DONE</title>
<path fill="none" stroke="black" d="M726.12,-104C737.63,-104 749.38,-104 761.22,-104"/>
<polygon fill="black" stroke="black" points="761.08,-107.5 771.08,-104 761.08,-100.5 761.08,-107.5"/>
</g>
<!-- CHEQUE_DONE -->
<g id="node12" class="node">
<title>CHEQUE_DONE</title>
<polygon fill="none" stroke="black" points="1189.12,-65.5 846.88,-65.5 846.88,-24.5 1189.12,-24.5 1189.12,-65.5"/>
<text xml:space="preserve" text-anchor="middle" x="1018" y="-48.2" font-family="Times New Roman,serif" font-size="14.00">Cheque ROUTE /api/cheques</text>
<text xml:space="preserve" text-anchor="middle" x="1018" y="-31.7" font-family="Times New Roman,serif" font-size="14.00">[DONE P60.4 — create/clear/reject/list, live 401&#45;protected]</text>
</g>
<!-- T_CHEQUE&#45;&gt;CHEQUE_DONE -->
<g id="edge10" class="edge">
<title>T_CHEQUE&#45;&gt;CHEQUE_DONE</title>
<path fill="none" stroke="black" d="M681.08,-47.2C728.29,-46.89 783.38,-46.53 835.13,-46.19"/>
<polygon fill="black" stroke="black" points="834.98,-49.69 844.96,-46.13 834.93,-42.69 834.98,-49.69"/>
</g>
<!-- TARIFF_SEED -->
<g id="node11" class="node">
<title>TARIFF_SEED</title>
<polygon fill="none" stroke="black" points="350.5,-340.5 0,-340.5 0,-299.5 350.5,-299.5 350.5,-340.5"/>
<text xml:space="preserve" text-anchor="middle" x="175.25" y="-323.2" font-family="Times New Roman,serif" font-size="14.00">Solar tiered Tariff seed</text>
<text xml:space="preserve" text-anchor="middle" x="175.25" y="-306.7" font-family="Times New Roman,serif" font-size="14.00">[DONE LR&#45;6 — 12 tiers + 1.68 over&#45;limit; test&#45;DB verified]</text>
</g>
<!-- CONTRACT -->
<g id="node13" class="node">
<title>CONTRACT</title>
<polygon fill="none" stroke="black" points="271.75,-446 78.75,-446 78.75,-410 271.75,-410 271.75,-446"/>
<text xml:space="preserve" text-anchor="middle" x="175.25" y="-422.95" font-family="Times New Roman,serif" font-size="14.00">contract 56 (skip unless test BE)</text>
</g>
<!-- INTEG -->
<g id="node14" class="node">
<title>INTEG</title>
<polygon fill="none" stroke="black" points="662.75,-446 454.75,-446 454.75,-410 662.75,-410 662.75,-446"/>
<text xml:space="preserve" text-anchor="middle" x="558.75" y="-422.95" font-family="Times New Roman,serif" font-size="14.00">integration 31 (skip unless test BE)</text>
</g>
<!-- CONTRACT&#45;&gt;INTEG -->
<g id="edge11" class="edge">
<title>CONTRACT&#45;&gt;INTEG</title>
<path fill="none" stroke="black" stroke-dasharray="5,2" d="M272.03,-428C323.95,-428 388.49,-428 443.08,-428"/>
<polygon fill="black" stroke="black" points="443.06,-431.5 453.06,-428 443.06,-424.5 443.06,-431.5"/>
</g>
<!-- E2E -->
<g id="node15" class="node">
<title>E2E</title>
<polygon fill="none" stroke="black" points="220.38,-500 130.12,-500 130.12,-464 220.38,-464 220.38,-500"/>
<text xml:space="preserve" text-anchor="middle" x="175.25" y="-476.95" font-family="Times New Roman,serif" font-size="14.00">E2E 2 (login)</text>
</g>
<!-- TSC -->
<g id="node16" class="node">
<title>TSC</title>
<polygon fill="none" stroke="black" points="205.75,-554 144.75,-554 144.75,-518 205.75,-518 205.75,-554"/>
<text xml:space="preserve" text-anchor="middle" x="175.25" y="-530.95" font-family="Times New Roman,serif" font-size="14.00">FE tsc 0</text>
</g>
<!-- GAP1 -->
<g id="node17" class="node">
<title>GAP1</title>
<polygon fill="none" stroke="black" points="318.62,-608 31.88,-608 31.88,-572 318.62,-572 318.62,-608"/>
<text xml:space="preserve" text-anchor="middle" x="175.25" y="-584.95" font-family="Times New Roman,serif" font-size="14.00">GAP: Reading obis180/280 capture (OBIS&#45;gated)</text>
</g>
<!-- GAP2 -->
<g id="node18" class="node">
<title>GAP2</title>
<polygon fill="none" stroke="black" points="703.25,-608 414.25,-608 414.25,-572 703.25,-572 703.25,-608"/>
<text xml:space="preserve" text-anchor="middle" x="558.75" y="-584.95" font-family="Times New Roman,serif" font-size="14.00">GAP: import EXECUTE in prod (approval&#45;gated)</text>
</g>
<!-- GAP1&#45;&gt;GAP2 -->
<g id="edge12" class="edge">
<title>GAP1&#45;&gt;GAP2</title>
<path fill="none" stroke="black" stroke-dasharray="1,5" d="M319.12,-590C346.36,-590 374.99,-590 402.59,-590"/>
<polygon fill="black" stroke="black" points="402.42,-593.5 412.42,-590 402.42,-586.5 402.42,-593.5"/>
</g>
<!-- GAP3 -->
<g id="node19" class="node">
<title>GAP3</title>
<polygon fill="none" stroke="black" points="1163.62,-608 872.38,-608 872.38,-572 1163.62,-572 1163.62,-608"/>
<text xml:space="preserve" text-anchor="middle" x="1018" y="-584.95" font-family="Times New Roman,serif" font-size="14.00">GAP: POS/CurrencyType/chilled (evidence&#45;gated)</text>
</g>
<!-- GAP2&#45;&gt;GAP3 -->
<g id="edge13" class="edge">
<title>GAP2&#45;&gt;GAP3</title>
<path fill="none" stroke="black" stroke-dasharray="1,5" d="M703.49,-590C753.39,-590 809.58,-590 860.47,-590"/>
<polygon fill="black" stroke="black" points="860.4,-593.5 870.4,-590 860.4,-586.5 860.4,-593.5"/>
</g>
</g>
</svg>
