<?xml version="1.0" encoding="UTF-8" standalone="no"?>
<!DOCTYPE svg PUBLIC "-//W3C//DTD SVG 1.1//EN"
 "http://www.w3.org/Graphics/SVG/1.1/DTD/svg11.dtd">
<!-- Generated by graphviz version 15.1.0 (20260618.0150)
 -->
<!-- Title: TestCov Pages: 1 -->
<svg width="1286pt" height="717pt"
 viewBox="0.00 0.00 1286.00 717.00" xmlns="http://www.w3.org/2000/svg" xmlns:xlink="http://www.w3.org/1999/xlink">
<g id="graph0" class="graph" transform="scale(1 1) rotate(0) translate(4 712.5)">
<title>TestCov</title>
<polygon fill="white" stroke="none" points="-4,4 -4,-712.5 1282,-712.5 1282,4 -4,4"/>
<text xml:space="preserve" text-anchor="middle" x="639" y="-7.2" font-family="Times New Roman,serif" font-size="14.00">Test Coverage â€” v1.0.0 (evidence, not estimates)</text>
<!-- UNIT -->
<g id="node1" class="node">
<title>UNIT</title>
<polygon fill="none" stroke="black" points="290.12,-276.5 64.88,-276.5 64.88,-240.5 290.12,-240.5 290.12,-276.5"/>
<text xml:space="preserve" text-anchor="middle" x="177.5" y="-253.45" font-family="Times New Roman,serif" font-size="14.00">unit+api 405 (387 pass + 18 skip live)</text>
</g>
<!-- T_SEC -->
<g id="node2" class="node">
<title>T_SEC</title>
<polygon fill="none" stroke="black" points="684.5,-492.5 442,-492.5 442,-456.5 684.5,-456.5 684.5,-492.5"/>
<text xml:space="preserve" text-anchor="middle" x="563.25" y="-469.45" font-family="Times New Roman,serif" font-size="14.00">security 49 (requireAccess NULLâ†’403)</text>
</g>
<!-- UNIT&#45;&gt;T_SEC -->
<g id="edge1" class="edge">
<title>UNIT&#45;&gt;T_SEC</title>
<path fill="none" stroke="black" d="M226.09,-276.91C265.22,-294.14 319.75,-323.27 355,-363.5 381.77,-394.05 358.94,-422.56 391,-447.5 402.74,-456.63 416.32,-463.24 430.6,-467.97"/>
<polygon fill="black" stroke="black" points="429.61,-471.32 440.19,-470.8 431.59,-464.61 429.61,-471.32"/>
</g>
<!-- T_SETTLE -->
<g id="node3" class="node">
<title>T_SETTLE</title>
<polygon fill="none" stroke="black" points="625.25,-438.5 501.25,-438.5 501.25,-402.5 625.25,-402.5 625.25,-438.5"/>
<text xml:space="preserve" text-anchor="middle" x="563.25" y="-415.45" font-family="Times New Roman,serif" font-size="14.00">settlement 7 (LR&#45;2)</text>
</g>
<!-- UNIT&#45;&gt;T_SETTLE -->
<g id="edge2" class="edge">
<title>UNIT&#45;&gt;T_SETTLE</title>
<path fill="none" stroke="black" d="M213.01,-276.9C249.33,-296.75 307.7,-330.04 355,-363.5 372,-375.53 372.03,-384.9 391,-393.5 421.64,-407.39 458.17,-414.3 489.61,-417.67"/>
<polygon fill="black" stroke="black" points="489.14,-421.14 499.43,-418.62 489.81,-414.17 489.14,-421.14"/>
</g>
<!-- T_CHARGE -->
<g id="node4" class="node">
<title>T_CHARGE</title>
<polygon fill="none" stroke="black" points="631.62,-384.5 494.88,-384.5 494.88,-348.5 631.62,-348.5 631.62,-384.5"/>
<text xml:space="preserve" text-anchor="middle" x="563.25" y="-361.45" font-family="Times New Roman,serif" font-size="14.00">charge&#45;types 7 (LR&#45;2)</text>
</g>
<!-- UNIT&#45;&gt;T_CHARGE -->
<g id="edge3" class="edge">
<title>UNIT&#45;&gt;T_CHARGE</title>
<path fill="none" stroke="black" d="M219.2,-276.93C261.36,-295.32 329.58,-323.14 391,-339.5 420.79,-347.43 454.15,-353.34 483.46,-357.57"/>
<polygon fill="black" stroke="black" points="482.59,-360.98 492.98,-358.9 483.56,-354.05 482.59,-360.98"/>
</g>
<!-- T_DBGUARD -->
<g id="node5" class="node">
<title>T_DBGUARD</title>
<polygon fill="none" stroke="black" points="630.5,-330.5 496,-330.5 496,-294.5 630.5,-294.5 630.5,-330.5"/>
<text xml:space="preserve" text-anchor="middle" x="563.25" y="-307.45" font-family="Times New Roman,serif" font-size="14.00">db&#45;guard 6 (isolation)</text>
</g>
<!-- UNIT&#45;&gt;T_DBGUARD -->
<g id="edge4" class="edge">
<title>UNIT&#45;&gt;T_DBGUARD</title>
<path fill="none" stroke="black" d="M290.53,-274.26C352.83,-283.03 428.79,-293.72 484.55,-301.57"/>
<polygon fill="black" stroke="black" points="483.88,-305.01 494.27,-302.93 484.86,-298.07 483.88,-305.01"/>
</g>
<!-- T_IMPORT -->
<g id="node6" class="node">
<title>T_IMPORT</title>
<polygon fill="none" stroke="black" points="735.5,-276.5 391,-276.5 391,-240.5 735.5,-240.5 735.5,-276.5"/>
<text xml:space="preserve" text-anchor="middle" x="563.25" y="-253.45" font-family="Times New Roman,serif" font-size="14.00">import&#45;engine 15 + tenancy 3 (LR&#45;3/4/6 + P60.1 templates)</text>
</g>
<!-- UNIT&#45;&gt;T_IMPORT -->
<g id="edge5" class="edge">
<title>UNIT&#45;&gt;T_IMPORT</title>
<path fill="none" stroke="black" d="M290.53,-258.5C318.51,-258.5 349.24,-258.5 379.67,-258.5"/>
<polygon fill="black" stroke="black" points="379.34,-262 389.34,-258.5 379.34,-255 379.34,-262"/>
</g>
<!-- T_SOLAR -->
<g id="node7" class="node">
<title>T_SOLAR</title>
<polygon fill="none" stroke="black" points="730.25,-222.5 396.25,-222.5 396.25,-186.5 730.25,-186.5 730.25,-222.5"/>
<text xml:space="preserve" text-anchor="middle" x="563.25" y="-199.45" font-family="Times New Roman,serif" font-size="14.00">solar&#45;wallet 16 (LR&#45;5) + solar route LIVE&#45;verified (LR&#45;7)</text>
</g>
<!-- UNIT&#45;&gt;T_SOLAR -->
<g id="edge6" class="edge">
<title>UNIT&#45;&gt;T_SOLAR</title>
<path fill="none" stroke="black" d="M290.53,-242.74C330.94,-237.05 377.11,-230.55 419.77,-224.55"/>
<polygon fill="black" stroke="black" points="420.21,-228.02 429.62,-223.16 419.23,-221.09 420.21,-228.02"/>
</g>
<!-- T_CHEQUE -->
<g id="node8" class="node">
<title>T_CHEQUE</title>
<polygon fill="none" stroke="black" points="685.25,-168.5 441.25,-168.5 441.25,-132.5 685.25,-132.5 685.25,-168.5"/>
<text xml:space="preserve" text-anchor="middle" x="563.25" y="-145.45" font-family="Times New Roman,serif" font-size="14.00">cheque engine 6 (LR&#45;7) + route 8 (P60.4)</text>
</g>
<!-- UNIT&#45;&gt;T_CHEQUE -->
<g id="edge7" class="edge">
<title>UNIT&#45;&gt;T_CHEQUE</title>
<path fill="none" stroke="black" d="M219.2,-240.07C261.36,-221.68 329.58,-193.86 391,-177.5 403.5,-174.17 416.62,-171.2 429.82,-168.56"/>
<polygon fill="black" stroke="black" points="430.26,-172.04 439.42,-166.71 428.93,-165.17 430.26,-172.04"/>
</g>
<!-- T_PAY -->
<g id="node9" class="node">
<title>T_PAY</title>
<polygon fill="none" stroke="black" points="734.38,-114.5 392.12,-114.5 392.12,-78.5 734.38,-78.5 734.38,-114.5"/>
<text xml:space="preserve" text-anchor="middle" x="563.25" y="-91.45" font-family="Times New Roman,serif" font-size="14.00">payment route 8 (P60.4) &#45; allocation/overpay/dup/statement</text>
</g>
<!-- UNIT&#45;&gt;T_PAY -->
<g id="edge8" class="edge">
<title>UNIT&#45;&gt;T_PAY</title>
<path fill="none" stroke="black" d="M200.42,-240.18C237.23,-210.48 314.95,-152.23 391,-123.5 396.1,-121.57 401.33,-119.79 406.66,-118.12"/>
<polygon fill="black" stroke="black" points="407.64,-121.48 416.25,-115.32 405.67,-114.77 407.64,-121.48"/>
</g>
<!-- T_SYMB -->
<g id="node10" class="node">
<title>T_SYMB</title>
<polygon fill="none" stroke="black" points="713.38,-60.5 413.12,-60.5 413.12,-24.5 713.38,-24.5 713.38,-60.5"/>
<text xml:space="preserve" text-anchor="middle" x="563.25" y="-37.45" font-family="Times New Roman,serif" font-size="14.00">symbiot ingest 13 (P60.6/P60.7) + ingestion route 5</text>
</g>
<!-- UNIT&#45;&gt;T_SYMB -->
<g id="edge9" class="edge">
<title>UNIT&#45;&gt;T_SYMB</title>
<path fill="none" stroke="black" d="M192.67,-240.23C223.83,-201.5 302.62,-111.29 391,-69.5 394.58,-67.81 398.24,-66.22 401.97,-64.73"/>
<polygon fill="black" stroke="black" points="403.06,-68.06 411.22,-61.3 400.62,-61.49 403.06,-68.06"/>
</g>
<!-- IMPORT_DONE -->
<g id="node11" class="node">
<title>IMPORT_DONE</title>
<polygon fill="none" stroke="black" points="1278,-284 771.5,-284 771.5,-243 1278,-243 1278,-284"/>
<text xml:space="preserve" text-anchor="middle" x="1024.75" y="-266.7" font-family="Times New Roman,serif" font-size="14.00">Solar Excel ImportJob</text>
<text xml:space="preserve" text-anchor="middle" x="1024.75" y="-250.2" font-family="Times New Roman,serif" font-size="14.00">[DONE LR&#45;3 â€” EXECUTE prod&#45;grade: dup&#45;detect + per&#45;row tx + 50k cap; prod gated]</text>
</g>
<!-- T_IMPORT&#45;&gt;IMPORT_DONE -->
<g id="edge10" class="edge">
<title>T_IMPORT&#45;&gt;IMPORT_DONE</title>
<path fill="none" stroke="black" d="M735.68,-260.37C743.74,-260.45 751.91,-260.54 760.14,-260.63"/>
<polygon fill="black" stroke="black" points="759.84,-264.13 769.88,-260.74 759.92,-257.13 759.84,-264.13"/>
</g>
<!-- SOLAR_DONE -->
<g id="node12" class="node">
<title>SOLAR_DONE</title>
<polygon fill="none" stroke="black" points="1272,-225 777.5,-225 777.5,-184 1272,-184 1272,-225"/>
<text xml:space="preserve" text-anchor="middle" x="1024.75" y="-207.7" font-family="Times New Roman,serif" font-size="14.00">Solar Wallet ENGINE + ROUTE</text>
<text xml:space="preserve" text-anchor="middle" x="1024.75" y="-191.2" font-family="Times New Roman,serif" font-size="14.00">[DONE LR&#45;5/7 â€” compute/persist/route LIVE&#45;verified; Reading capture OBIS&#45;gated]</text>
</g>
<!-- T_SOLAR&#45;&gt;SOLAR_DONE -->
<g id="edge11" class="edge">
<title>T_SOLAR&#45;&gt;SOLAR_DONE</title>
<path fill="none" stroke="black" d="M730.46,-204.5C742.05,-204.5 753.87,-204.5 765.79,-204.5"/>
<polygon fill="black" stroke="black" points="765.74,-208 775.74,-204.5 765.74,-201 765.74,-208"/>
</g>
<!-- CHEQUE_DONE -->
<g id="node14" class="node">
<title>CHEQUE_DONE</title>
<polygon fill="none" stroke="black" points="1272.38,-166 777.12,-166 777.12,-125 1272.38,-125 1272.38,-166"/>
<text xml:space="preserve" text-anchor="middle" x="1024.75" y="-148.7" font-family="Times New Roman,serif" font-size="14.00">Cheque ROUTE /api/cheques + FE admin/cheques</text>
<text xml:space="preserve" text-anchor="middle" x="1024.75" y="-132.2" font-family="Times New Roman,serif" font-size="14.00">[DONE P60.4/P60.5 â€” create/clear/reject/list, live 401&#45;protected, UI nav+page wired]</text>
</g>
<!-- T_CHEQUE&#45;&gt;CHEQUE_DONE -->
<g id="edge12" class="edge">
<title>T_CHEQUE&#45;&gt;CHEQUE_DONE</title>
<path fill="none" stroke="black" d="M685.58,-149.18C710.47,-148.91 737.56,-148.61 765.21,-148.31"/>
<polygon fill="black" stroke="black" points="765.2,-151.81 775.16,-148.21 765.12,-144.81 765.2,-151.81"/>
</g>
<!-- TARIFF_SEED -->
<g id="node13" class="node">
<title>TARIFF_SEED</title>
<polygon fill="none" stroke="black" points="355,-414 0,-414 0,-373 355,-373 355,-414"/>
<text xml:space="preserve" text-anchor="middle" x="177.5" y="-396.7" font-family="Times New Roman,serif" font-size="14.00">Solar tiered Tariff seed</text>
<text xml:space="preserve" text-anchor="middle" x="177.5" y="-380.2" font-family="Times New Roman,serif" font-size="14.00">[DONE LR&#45;6 â€” 12 tiers + 1.68 over&#45;limit; test&#45;DB verified]</text>
</g>
<!-- CONTRACT -->
<g id="node15" class="node">
<title>CONTRACT</title>
<polygon fill="none" stroke="black" points="274,-546.5 81,-546.5 81,-510.5 274,-510.5 274,-546.5"/>
<text xml:space="preserve" text-anchor="middle" x="177.5" y="-523.45" font-family="Times New Roman,serif" font-size="14.00">contract 56 (skip unless test BE)</text>
</g>
<!-- INTEG -->
<g id="node16" class="node">
<title>INTEG</title>
<polygon fill="none" stroke="black" points="667.25,-546.5 459.25,-546.5 459.25,-510.5 667.25,-510.5 667.25,-546.5"/>
<text xml:space="preserve" text-anchor="middle" x="563.25" y="-523.45" font-family="Times New Roman,serif" font-size="14.00">integration 31 (skip unless test BE)</text>
</g>
<!-- CONTRACT&#45;&gt;INTEG -->
<g id="edge13" class="edge">
<title>CONTRACT&#45;&gt;INTEG</title>
<path fill="none" stroke="black" stroke-dasharray="5,2" d="M274.35,-528.5C326.89,-528.5 392.38,-528.5 447.62,-528.5"/>
<polygon fill="black" stroke="black" points="447.37,-532 457.37,-528.5 447.37,-525 447.37,-532"/>
</g>
<!-- E2E -->
<g id="node17" class="node">
<title>E2E</title>
<polygon fill="none" stroke="black" points="222.62,-600.5 132.38,-600.5 132.38,-564.5 222.62,-564.5 222.62,-600.5"/>
<text xml:space="preserve" text-anchor="middle" x="177.5" y="-577.45" font-family="Times New Roman,serif" font-size="14.00">E2E 2 (login)</text>
</g>
<!-- TSC -->
<g id="node18" class="node">
<title>TSC</title>
<polygon fill="none" stroke="black" points="208,-654.5 147,-654.5 147,-618.5 208,-618.5 208,-654.5"/>
<text xml:space="preserve" text-anchor="middle" x="177.5" y="-631.45" font-family="Times New Roman,serif" font-size="14.00">FE tsc 0</text>
</g>
<!-- GAP1 -->
<g id="node19" class="node">
<title>GAP1</title>
<polygon fill="none" stroke="black" points="320.88,-708.5 34.12,-708.5 34.12,-672.5 320.88,-672.5 320.88,-708.5"/>
<text xml:space="preserve" text-anchor="middle" x="177.5" y="-685.45" font-family="Times New Roman,serif" font-size="14.00">GAP: Reading obis180/280 capture (OBIS&#45;gated)</text>
</g>
<!-- GAP2 -->
<g id="node20" class="node">
<title>GAP2</title>
<polygon fill="none" stroke="black" points="707.75,-708.5 418.75,-708.5 418.75,-672.5 707.75,-672.5 707.75,-708.5"/>
<text xml:space="preserve" text-anchor="middle" x="563.25" y="-685.45" font-family="Times New Roman,serif" font-size="14.00">GAP: import EXECUTE in prod (approval&#45;gated)</text>
</g>
<!-- GAP1&#45;&gt;GAP2 -->
<g id="edge14" class="edge">
<title>GAP1&#45;&gt;GAP2</title>
<path fill="none" stroke="black" stroke-dasharray="1,5" d="M321.12,-690.5C349.17,-690.5 378.72,-690.5 407.15,-690.5"/>
<polygon fill="black" stroke="black" points="406.89,-694 416.89,-690.5 406.89,-687 406.89,-694"/>
</g>
<!-- GAP3 -->
<g id="node21" class="node">
<title>GAP3</title>
<polygon fill="none" stroke="black" points="1170.38,-708.5 879.12,-708.5 879.12,-672.5 1170.38,-672.5 1170.38,-708.5"/>
<text xml:space="preserve" text-anchor="middle" x="1024.75" y="-685.45" font-family="Times New Roman,serif" font-size="14.00">GAP: POS/CurrencyType/chilled (evidence&#45;gated)</text>
</g>
<!-- GAP2&#45;&gt;GAP3 -->
<g id="edge15" class="edge">
<title>GAP2&#45;&gt;GAP3</title>
<path fill="none" stroke="black" stroke-dasharray="1,5" d="M708.06,-690.5C758.71,-690.5 815.87,-690.5 867.49,-690.5"/>
<polygon fill="black" stroke="black" points="867.25,-694 877.25,-690.5 867.25,-687 867.25,-694"/>
</g>
</g>
</svg>
